<?xml version="1.0" standalone="no"?>
<!DOCTYPE svg PUBLIC "-//W3C//DTD SVG 20010904//EN"
 "http://www.w3.org/TR/2001/REC-SVG-20010904/DTD/svg10.dtd">
<svg version="1.0" xmlns="http://www.w3.org/2000/svg"
 width="510.000000pt" height="510.000000pt" viewBox="0 0 510.000000 510.000000"
 preserveAspectRatio="xMidYMid meet">
<metadata>
Created by potrace 1.14, written by Peter Selinger 2001-2017
</metadata>
<g transform="translate(0.000000,510.000000) scale(0.100000,-0.100000)"
fill="#000000" stroke="none">
<path d="M445 4989 c-22 -4 -50 -10 -61 -13 -38 -8 -114 -46 -114 -57 0 -6 -4
-8 -9 -5 -5 3 -14 -1 -21 -9 -7 -8 -17 -15 -21 -15 -13 0 -145 -138 -141 -147
1 -2 -12 -31 -28 -65 -15 -35 -32 -79 -36 -98 -13 -54 -17 -3966 -4 -4020 6
-25 13 -58 16 -75 3 -16 9 -32 12 -35 4 -3 9 -14 10 -25 2 -11 7 -22 11 -25 3
-3 15 -22 26 -44 23 -44 131 -156 151 -156 8 0 14 -4 14 -8 0 -5 19 -17 42
-28 24 -10 46 -23 50 -29 4 -5 8 -6 8 -2 0 4 8 4 18 -2 9 -5 40 -13 67 -17 60
-11 4175 -12 4225 -2 71 15 125 35 123 46 -2 7 0 11 5 10 15 -3 62 15 62 24 0
5 4 7 9 4 5 -3 11 1 15 9 3 8 11 15 17 15 13 0 99 85 99 98 0 5 7 15 15 22 8
7 13 16 10 20 -3 4 2 10 10 14 8 3 15 15 15 26 0 11 5 20 11 20 5 0 8 4 5 8
-3 5 2 21 10 37 8 15 19 58 24 94 16 100 9 4006 -7 4022 -6 6 -9 17 -7 23 10
26 -90 205 -115 206 -8 0 -11 3 -8 6 12 12 -88 94 -158 129 -40 20 -98 39
-135 45 -80 12 -4156 12 -4215 -1z"/>
</g>
</svg>
